<svg xmlns="http://www.w3.org/2000/svg" width="53" height="53" viewBox="212 397 53 53"><g data-name="그룹 109"><path d="M232 397h13a20 20 0 0 1 20 20v13a20 20 0 0 1-20 20h-13a20 20 0 0 1-20-20v-13a20 20 0 0 1 20-20z" fill="#fff" fill-rule="evenodd" data-name="사각형 126"/><g data-name="그룹 85"><g data-name="그룹 84" transform="translate(221.77 408)" clip-path="url(&quot;#a&quot;)"><path d="M21.537 8.875a8.291 8.291 0 1 1-16.583 0 8.291 8.291 0 0 1 16.583 0" fill="#fff" fill-rule="evenodd" data-name="패스 96"/><path d="M4.955 8.775a8.291 8.291 0 1 1 0 .1z" stroke-linejoin="round" stroke-linecap="round" stroke="#e1c19d" fill="transparent" data-name="타원 3"/><path d="M8.875 28.17c-4.578 0-8.29-2.464-8.29-5.502 0-3.039 3.712-5.502 8.29-5.502 4.579 0 8.291 2.463 8.291 5.502 0 3.038-3.712 5.502-8.29 5.502" fill="#e1c19d" fill-rule="evenodd" data-name="패스 97"/><path d="M8.875 28.17c-4.578 0-8.29-2.464-8.29-5.502 0-3.039 3.712-5.502 8.29-5.502 4.579 0 8.291 2.463 8.291 5.502 0 3.038-3.712 5.502-8.29 5.502Z" stroke-linejoin="round" stroke-linecap="round" stroke="#e1c19d" fill="transparent" data-name="패스 98"/><path d="M27.369 12.266V6.86l2.148-1.903v7.16" fill="#cc5282" fill-rule="evenodd" data-name="패스 99"/><path d="M26.492 15.806h3.901v10.91h-3.9v-10.91z" fill="#debd9b" fill-rule="evenodd" data-name="사각형 108"/><path d="M26.492 15.806h3.901v10.91h0-3.9 0v-10.91h0z" stroke-linejoin="round" stroke-linecap="round" stroke="#debd9b" fill="transparent" data-name="사각형 109"/><path d="M30.026 14.685H26.86v-1.284c0-.521.423-.943.944-.943h1.28c.52 0 .942.422.942.943v1.284Z" fill="#debd9b" fill-rule="evenodd" data-name="패스 100"/><path d="M30.026 14.685H26.86v-1.284c0-.521.423-.943.944-.943h1.28c.52 0 .942.422.942.943v1.284Z" stroke-linejoin="round" stroke-linecap="round" stroke="#debd9b" fill="transparent" data-name="패스 101"/></g></g></g><defs><clipPath id="a"><path d="M0 0h30.977v28.754H0V0z" data-name="사각형 110"/></clipPath></defs></svg>