<svg xmlns="http://www.w3.org/2000/svg" width="53" height="53" viewBox="18 169 53 53"><g data-name="그룹 99"><path d="M38 169h13a20 20 0 0 1 20 20v13a20 20 0 0 1-20 20H38a20 20 0 0 1-20-20v-13a20 20 0 0 1 20-20z" fill="#fff" fill-rule="evenodd" data-name="사각형 122"/><g data-name="그룹 74"><g data-name="그룹 73" transform="translate(23.177 173.862)" clip-path="url(&quot;#a&quot;)"><g data-name="패스 81"><path d="M41.823 32.218c0 2.993-9.25 5.419-20.661 5.419C9.751 37.637.5 35.211.5 32.218c0-2.993 9.251-5.419 20.662-5.419s20.661 2.426 20.661 5.419" fill="#fff" fill-rule="evenodd"/><path d="M41.823 32.218c0 2.993-9.25 5.419-20.661 5.419C9.751 37.637.5 35.211.5 32.218c0-2.993 9.251-5.419 20.662-5.419s20.661 2.426 20.661 5.419" stroke-linejoin="round" stroke-linecap="round" stroke="rgba(0,0,0,0 )" fill="transparent"/></g><path d="M41.823 32.218c0 2.993-9.25 5.419-20.661 5.419C9.751 37.637.5 35.211.5 32.218c0-2.993 9.251-5.419 20.662-5.419s20.661 2.426 20.661 5.419Z" stroke-linejoin="round" stroke-linecap="round" stroke="#f6d2a7" fill="transparent" data-name="패스 82"/><g data-name="패스 83"><path d="M24.258 31.734H17a7.694 7.694 0 0 1-7.694-7.694V12.476s8.292-.045 11.081-.048c2.886-.004 11.565.048 11.565.048V24.04a7.694 7.694 0 0 1-7.694 7.694" fill="#f2cea5" fill-rule="evenodd"/><path d="M24.258 31.734H17a7.694 7.694 0 0 1-7.694-7.694V12.476s8.292-.045 11.081-.048c2.886-.004 11.565.048 11.565.048V24.04a7.694 7.694 0 0 1-7.694 7.694" stroke-linejoin="round" stroke-linecap="round" stroke="rgba(0,0,0,0 )" fill="transparent"/></g><path d="M23.775 31.444h-7.258a7.694 7.694 0 0 1-7.694-7.694V12.186s8.292-.045 11.081-.048c2.886-.004 11.565.048 11.565.048V23.75a7.694 7.694 0 0 1-7.694 7.694Z" stroke-linejoin="round" stroke-linecap="round" stroke="#f6d2a7" fill="transparent" data-name="패스 84"/><path d="M31.952 15.741s9.097 4.935 0 8.613" stroke-linejoin="round" stroke-linecap="round" stroke="#f6d2a7" fill="transparent" data-name="패스 85"/><path d="M20.629.38s-1.694 1.452-.968 3.919c.726 2.468 3.194 2.468 1.5 4.694" stroke-linejoin="round" stroke-linecap="round" stroke="#f6d2a7" fill="transparent" data-name="패스 86"/><path d="M26.145 2.557s-1.694 1.452-.968 3.919c.726 2.468 3.194 2.468 1.5 4.694" stroke-linejoin="round" stroke-linecap="round" stroke="#f6d2a7" fill="transparent" data-name="패스 87"/><path d="M15.307 2.315s-1.694 1.452-.968 3.919c.725 2.468 3.193 2.468 1.5 4.694" stroke-linejoin="round" stroke-linecap="round" stroke="#f6d2a7" fill="transparent" data-name="패스 88"/></g></g></g><defs><clipPath id="a"><path d="M0 0h42.323v38.138H0V0z" data-name="사각형 96"/></clipPath></defs></svg>