<svg xmlns="http://www.w3.org/2000/svg" width="53" height="53" viewBox="212 630 53 53"><g data-name="그룹 117"><path d="M232 630h13a20 20 0 0 1 20 20v13a20 20 0 0 1-20 20h-13a20 20 0 0 1-20-20v-13a20 20 0 0 1 20-20z" fill="#fff" fill-rule="evenodd" data-name="사각형 134"/><g data-name="그룹 94"><path d="m223.984 647.162 8.645 16.194 15.742-.064 7.549-16.13h-31.936Z" fill="#debd9b" fill-rule="evenodd" data-name="패스 113"/><g data-name="그룹 93"><g data-name="그룹 92" transform="translate(221.08 645.873)" clip-path="url(&quot;#a&quot;)"><path d="M5.936 2.065H1.033a1.032 1.032 0 1 1 0-2.065h4.903a1.033 1.033 0 0 1 0 2.065" fill="#debd9b" fill-rule="evenodd" data-name="패스 114"/><path d="M12.197 18.029 8.73 21.496a1.033 1.033 0 0 1-1.46-1.46l3.467-3.467a1.033 1.033 0 0 1 1.46 1.46" fill="#debd9b" fill-rule="evenodd" data-name="패스 115"/><path d="M30.081 22.124H7.855a1.032 1.032 0 1 1 0-2.065h22.226a1.033 1.033 0 0 1 0 2.065" fill="#debd9b" fill-rule="evenodd" data-name="패스 116"/><path d="M14.693 26.361a2.032 2.032 0 1 1-4.065 0 2.032 2.032 0 0 1 4.065 0" fill="#debd9b" fill-rule="evenodd" data-name="패스 117"/><path d="M26.435 26.361a2.032 2.032 0 1 1-4.065 0 2.032 2.032 0 0 1 4.065 0" fill="#debd9b" fill-rule="evenodd" data-name="패스 118"/></g></g></g></g><defs><clipPath id="a"><path d="M0 0h34.839v28.393H0V0z" data-name="사각형 119"/></clipPath></defs></svg>