<svg xmlns="http://www.w3.org/2000/svg" width="53" height="53" viewBox="1977.756 2094.148 53 53"><g data-name="그룹 106"><path d="M1997.756 2094.148h13a20 20 0 0 1 20 20v13a20 20 0 0 1-20 20h-13a20 20 0 0 1-20-20v-13a20 20 0 0 1 20-20z" fill="#fff" fill-rule="evenodd" data-name="사각형 129"/><g data-name="그룹 66"><g data-name="그룹 65" transform="translate(1990.509 2102.022)" clip-path="url(&quot;#a&quot;)"><path d="M27.483 35.957V1.296s-6.452 7.113-5.548 12.532c.903 5.419 5.032 4.798 5.032 4.798" fill="#f2cea5" fill-rule="evenodd" data-name="패스 57"/><path d="M27.483 35.957V1.296s-6.452 7.113-5.548 12.532c.903 5.419 5.032 4.798 5.032 4.798" stroke-linejoin="round" stroke-linecap="round" stroke="#f6d2a7" fill="transparent" data-name="패스 58"/><path d="M9.358 15.752h-4.5a4.847 4.847 0 0 1-4.847-4.847V9.666h14.194v1.239a4.847 4.847 0 0 1-4.847 4.847" fill="#f2cea5" fill-rule="evenodd" data-name="패스 59"/><path d="M7.281 3.8 6.467 9.2h1.628L7.281 3.8Z" fill="#f2cea5" fill-rule="evenodd" data-name="패스 60"/><path d="M7.281 3.8 6.467 9.2h1.628L7.281 3.8Z" stroke-linejoin="round" stroke-linecap="round" stroke="#f6d2a7" fill="transparent" data-name="패스 61"/><path d="M12.818 3.8 12.004 9.2h1.628L12.818 3.8Z" fill="#f2cea5" fill-rule="evenodd" data-name="패스 62"/><path d="M12.818 3.8 12.004 9.2h1.628L12.818 3.8Z" stroke-linejoin="round" stroke-linecap="round" stroke="#f6d2a7" fill="transparent" data-name="패스 63"/><path d="M1.395 3.8.58 9.2h1.628L1.395 3.8Z" fill="#f2cea5" fill-rule="evenodd" data-name="패스 64"/><path d="M1.395 3.8.58 9.2h1.628L1.395 3.8Z" stroke-linejoin="round" stroke-linecap="round" stroke="#f6d2a7" fill="transparent" data-name="패스 65"/><path d="M6.468 15.752h1.627v19.565H6.468V15.752z" fill="#f2cea5" fill-rule="evenodd" data-name="사각형 89"/><path d="M6.468 15.752h1.627v19.565h0-1.627 0V15.752h0z" stroke-linejoin="round" stroke-linecap="round" stroke="#f2cea5" fill="transparent" data-name="사각형 90"/></g></g></g><defs><clipPath id="a"><path d="M0 0h27.983v35.957H0V0z" data-name="사각형 91"/></clipPath></defs></svg>