<svg xmlns="http://www.w3.org/2000/svg" width="53" height="53" viewBox="18 702 53 53"><g data-name="그룹 114"><path d="M38 702h13a20 20 0 0 1 20 20v13a20 20 0 0 1-20 20H38a20 20 0 0 1-20-20v-13a20 20 0 0 1 20-20z" fill="#fff" fill-rule="evenodd" data-name="사각형 136"/><g data-name="그룹 89"><g data-name="그룹 88" transform="translate(27.758 711.846)" clip-path="url(&quot;#a&quot;)"><path d="M31.113 30.9H2.371A2.372 2.372 0 0 1 0 28.529V7.335a2.37 2.37 0 0 1 2.371-2.37h28.742a2.37 2.37 0 0 1 2.371 2.37v21.194a2.372 2.372 0 0 1-2.371 2.371" fill="#debd9b" fill-rule="evenodd" data-name="패스 104"/><path d="M0 23.254h33.484v.581H0v-.581z" fill="#fff" fill-rule="evenodd" data-name="사각형 113"/><path d="M16.742 4.965h.452V30.9h-.452V4.965z" fill="#fff" fill-rule="evenodd" data-name="사각형 114"/><path d="M20.538 3.565c-.994.994-2.249 1.351-2.804.796-.554-.554-.197-1.809.797-2.803S20.78.207 21.334.761c.555.555.198 1.81-.796 2.804" fill="#dabb99" fill-rule="evenodd" data-name="패스 105"/><path d="M20.538 3.565c-.994.994-2.249 1.351-2.804.796-.554-.554-.197-1.809.797-2.803S20.78.207 21.334.761c.555.555.198 1.81-.796 2.804Z" stroke-linejoin="round" stroke-linecap="round" stroke="#c69a6e" fill="transparent" data-name="패스 106"/><path d="M13.369 3.565c.994.994 2.249 1.351 2.804.796.554-.554.197-1.809-.797-2.803S13.127.207 12.573.761c-.555.555-.198 1.81.796 2.804" fill="#dabb99" fill-rule="evenodd" data-name="패스 107"/><path d="M13.369 3.565c.994.994 2.249 1.351 2.804.796.554-.554.197-1.809-.797-2.803S13.127.207 12.573.761c-.555.555-.198 1.81.796 2.804Z" stroke-linejoin="round" stroke-linecap="round" stroke="#c69a6e" fill="transparent" data-name="패스 108"/></g></g></g><defs><clipPath id="a"><path d="M0 0h33.484v30.9H0V0z" data-name="사각형 115"/></clipPath></defs></svg>