<svg xmlns="http://www.w3.org/2000/svg" width="53" height="53" viewBox="18 323 53 53"><g data-name="그룹 104"><path d="M38 323h13a20 20 0 0 1 20 20v13a20 20 0 0 1-20 20H38a20 20 0 0 1-20-20v-13a20 20 0 0 1 20-20z" fill="#fff" fill-rule="evenodd" data-name="사각형 124"/><g data-name="그룹 72"><g data-name="그룹 71" transform="translate(27.549 332)" clip-path="url(&quot;#a&quot;)"><path d="M34.775 17.387c0 9.603-7.785 17.387-17.388 17.387C7.785 34.774 0 26.99 0 17.387 0 7.784 7.785 0 17.387 0c9.603 0 17.388 7.784 17.388 17.387" fill="#edcba3" fill-rule="evenodd" data-name="패스 77"/><path d="M29.084 22.067c0 5.403-5.237 9.784-11.697 9.784-6.46 0-11.696-4.381-11.696-9.784" fill="#fff" fill-rule="evenodd" data-name="패스 78"/><path d="M13.775 13.943a3.444 3.444 0 1 1-6.888 0 3.444 3.444 0 0 1 6.888 0" fill="#fff" fill-rule="evenodd" data-name="패스 79"/><path d="M27.006 13.943a3.444 3.444 0 1 1-6.888 0 3.444 3.444 0 0 1 6.888 0" fill="#fff" fill-rule="evenodd" data-name="패스 80"/></g></g></g><defs><clipPath id="a"><path d="M0 0h34.775v34.775H0V0z" data-name="사각형 95"/></clipPath></defs></svg>