<svg xmlns="http://www.w3.org/2000/svg" width="53" height="53" viewBox="212 473 53 53"><g data-name="그룹 115"><path d="M232 473h13a20 20 0 0 1 20 20v13a20 20 0 0 1-20 20h-13a20 20 0 0 1-20-20v-13a20 20 0 0 1 20-20z" fill="#fff" fill-rule="evenodd" data-name="사각형 130"/><g data-name="그룹 83"><path d="M226.859 498.27h25.282v15.476h-25.282V498.27z" fill="#debd9b" fill-rule="evenodd" data-name="사각형 106"/><path d="m239.5 480.343-17.298 17.928h34.597L239.5 480.343Z" fill="#debd9b" fill-rule="evenodd" data-name="패스 94"/><g data-name="그룹 82"><g data-name="그룹 81" transform="translate(222.201 480.342)" clip-path="url(&quot;#a&quot;)"><path d="M19.579 33.404h-4.942V27.37a2.47 2.47 0 1 1 4.942 0v6.034Z" fill="#fff" fill-rule="evenodd" data-name="패스 95"/></g></g></g></g><defs><clipPath id="a"><path d="M0 0h34.597v33.404H0V0z" data-name="사각형 107"/></clipPath></defs></svg>