<svg xmlns="http://www.w3.org/2000/svg" width="53" height="53" viewBox="212 702 53 53"><g data-name="그룹 118"><path d="M232 702h13a20 20 0 0 1 20 20v13a20 20 0 0 1-20 20h-13a20 20 0 0 1-20-20v-13a20 20 0 0 1 20-20z" fill="#fff" fill-rule="evenodd" data-name="사각형 137"/><g data-name="그룹 91"><g data-name="그룹 90" transform="translate(219.726 716.064)" clip-path="url(&quot;#a&quot;)"><path d="M37.548 24.873H0V3.044A3.043 3.043 0 0 1 3.043 0H32.88a4.668 4.668 0 0 1 4.668 4.668v20.205Z" fill="#dabb99" fill-rule="evenodd" data-name="패스 109"/><path d="m28.52 0 3.032 6.244h-3.806L24.876 0" fill="#fff" fill-rule="evenodd" data-name="패스 110"/><path d="m21.327 0 3.032 6.244h-3.806L17.682 0" fill="#fff" fill-rule="evenodd" data-name="패스 111"/><path d="m14.166 0 3.032 6.244h-3.806L10.52 0" fill="#fff" fill-rule="evenodd" data-name="패스 112"/><path d="M0 8.276h37.548v.71H0v-.71z" fill="#fff" fill-rule="evenodd" data-name="사각형 116"/><path d="M0 18.516h37.548v.71H0v-.71z" fill="#fff" fill-rule="evenodd" data-name="사각형 117"/></g></g></g><defs><clipPath id="a"><path d="M0 0h37.548v24.873H0V0z" data-name="사각형 118"/></clipPath></defs></svg>