<svg xmlns="http://www.w3.org/2000/svg" width="53" height="53" viewBox="18 630 53 53"><g data-name="그룹 113"><g data-name="그룹 112"><path d="M38 630h13a20 20 0 0 1 20 20v13a20 20 0 0 1-20 20H38a20 20 0 0 1-20-20v-13a20 20 0 0 1 20-20z" fill="#fff" fill-rule="evenodd" data-name="사각형 135"/></g><g data-name="그룹 87"><g data-name="그룹 86" transform="translate(32.161 638.548)" clip-path="url(&quot;#a&quot;)"><path d="M20.226 35.903H4.452A4.452 4.452 0 0 1 0 31.451V2.468A2.468 2.468 0 0 1 2.468 0H22.21a2.468 2.468 0 0 1 2.468 2.468v28.983a4.452 4.452 0 0 1-4.452 4.452" fill="#e1c19d" fill-rule="evenodd" data-name="패스 102"/><path d="M3 3.677h18.194V29.71H3V3.677z" fill="#fff" fill-rule="evenodd" data-name="사각형 111"/><path d="M18.367 32.927H5.98a.593.593 0 0 1 0-1.185h12.387a.593.593 0 1 1 0 1.185" fill="#fff" fill-rule="evenodd" data-name="패스 103"/></g></g></g><defs><clipPath id="a"><path d="M0 0h24.677v35.903H0V0z" data-name="사각형 112"/></clipPath></defs></svg>