<svg xmlns="http://www.w3.org/2000/svg" width="53" height="53" viewBox="18 552 53 53"><g data-name="그룹 111"><path d="M38 552h13a20 20 0 0 1 20 20v13a20 20 0 0 1-20 20H38a20 20 0 0 1-20-20v-13a20 20 0 0 1 20-20z" fill="#fff" fill-rule="evenodd" data-name="사각형 132"/><g data-name="그룹 98"><g data-name="그룹 97" transform="translate(27.797 564.571)" clip-path="url(&quot;#a&quot;)"><path d="M20.362 5.111H6.745S3.019 4.771.85 11.818c-2.168 7.046 7.181 15.514 7.181 15.514h6.64s1.83-1.15 1.76-2.1l3.32-.067s.34 1.423 1.627 2.167h5.013s2.575-6.91 2.575-7.18c0-.271 3.184-.814 3.184-.814s1.644-7.343 0-8.807c-.549-.488-2.913.339-2.913.339l-4.54-3.998s2.236-1.965 2.304-3.657C27.069 1.52 25.579.572 25.579.572s-4.946 1.49-5.217 4.54" fill="#dabb99" fill-rule="evenodd" data-name="패스 123"/><path d="M20.362 5.111H6.745S3.019 4.771.85 11.818c-2.168 7.046 7.181 15.514 7.181 15.514h6.64s1.83-1.15 1.76-2.1l3.32-.067s.34 1.423 1.627 2.167h5.013s2.575-6.91 2.575-7.18c0-.271 3.184-.814 3.184-.814s1.644-7.343 0-8.807c-.549-.488-2.913.339-2.913.339l-4.54-3.998s2.236-1.965 2.304-3.657C27.069 1.52 25.579.572 25.579.572s-4.946 1.49-5.217 4.54Z" stroke-linejoin="round" stroke-linecap="round" stroke="#dabb99" fill="transparent" data-name="패스 124"/><path d="M26.514 12.632a1.32 1.32 0 1 1-2.642 0 1.32 1.32 0 0 1 2.642 0" fill="#fff" fill-rule="evenodd" data-name="패스 125"/><path d="M23.872 12.532a1.321 1.321 0 1 1 0 .1z" stroke-linejoin="round" stroke-linecap="round" stroke="#fff" fill="transparent" data-name="타원 4"/><path d="M19.228 9.836H12.42a1.473 1.473 0 1 1 0-2.946h6.81a1.473 1.473 0 1 1 0 2.946" fill="#fff" fill-rule="evenodd" data-name="패스 126"/><path d="M19.228 9.836H12.42a1.473 1.473 0 1 1 0-2.946h6.81a1.473 1.473 0 1 1 0 2.946Z" stroke-linejoin="round" stroke-linecap="round" stroke="#dabb99" fill="transparent" data-name="패스 127"/></g></g></g><defs><clipPath id="a"><path d="M0 0h33.406v27.858H0V0z" data-name="사각형 121"/></clipPath></defs></svg>