<svg xmlns="http://www.w3.org/2000/svg" width="53" height="53" viewBox="212 552 53 53"><g data-name="그룹 116"><path d="M232 552h13a20 20 0 0 1 20 20v13a20 20 0 0 1-20 20h-13a20 20 0 0 1-20-20v-13a20 20 0 0 1 20-20z" fill="#fff" fill-rule="evenodd" data-name="사각형 133"/><g data-name="그룹 96"><g data-name="그룹 95" transform="translate(226.518 564.205)" clip-path="url(&quot;#a&quot;)"><path d="M12.2.448.511 6.254s.604 17.517 11.528 21.871" fill="#dabb99" fill-rule="evenodd" data-name="패스 119"/><path d="M12.2.448.511 6.254s.604 17.517 11.528 21.871" stroke-linejoin="round" stroke-linecap="round" stroke="#dabb99" fill="transparent" data-name="패스 120"/><path d="m11.765.448 11.689 5.806s-.604 17.517-11.528 21.871" fill="#dabb99" fill-rule="evenodd" data-name="패스 121"/><path d="m11.765.448 11.689 5.806s-.604 17.517-11.528 21.871" stroke-linejoin="round" stroke-linecap="round" stroke="#dabb99" fill="transparent" data-name="패스 122"/></g></g></g><defs><clipPath id="a"><path d="M0 0h23.965v28.59H0V0z" data-name="사각형 120"/></clipPath></defs></svg>