<svg xmlns="http://www.w3.org/2000/svg" width="53" height="53" viewBox="212 323 53 53"><g data-name="그룹 108"><path d="M232 323h13a20 20 0 0 1 20 20v13a20 20 0 0 1-20 20h-13a20 20 0 0 1-20-20v-13a20 20 0 0 1 20-20z" fill="#fff" fill-rule="evenodd" data-name="사각형 127"/><g data-name="그룹 76"><g data-name="그룹 75" transform="translate(214.114 339.76)" clip-path="url(&quot;#a&quot;)"><path d="M21.626 3.289v16.19H3.145V3.29a3.284 3.284 0 0 1 3.279-3.29h1.562c.62 1.893 2.357 3.25 4.394 3.25 2.048 0 3.784-1.357 4.405-3.25h1.552a3.292 3.292 0 0 1 3.289 3.29" fill="#edcba3" fill-rule="evenodd" data-name="패스 89"/><path d="M3.145 3.289 0 8.65s.033 1.007 3.145 1.32" fill="#edcba3" fill-rule="evenodd" data-name="패스 90"/><path d="M21.626 3.289 24.77 8.65s-.032 1.007-3.145 1.32" fill="#edcba3" fill-rule="evenodd" data-name="패스 91"/><path d="M27.858 5.738h18.915V19.48H27.858V5.738z" fill="#edcba3" fill-rule="evenodd" data-name="사각형 97"/><path d="M31.616 6.63h1.429v1.428h-1.429V6.63z" fill="#fff" fill-rule="evenodd" data-name="사각형 98"/><path d="M41.334 6.63h1.429v1.428h-1.429V6.63z" fill="#fff" fill-rule="evenodd" data-name="사각형 99"/><path d="M32.331 7.343s4.687-13.632 9.718 0" stroke-linejoin="round" stroke-linecap="round" stroke="#e8c7a0" fill="transparent" data-name="패스 92"/></g></g></g><defs><clipPath id="a"><path d="M0 0h46.773v19.48H0V0z" data-name="사각형 100"/></clipPath></defs></svg>