<svg xmlns="http://www.w3.org/2000/svg" width="53" height="53" viewBox="18 249 53 53"><g data-name="그룹 103"><path d="M38 249h13a20 20 0 0 1 20 20v13a20 20 0 0 1-20 20H38a20 20 0 0 1-20-20v-13a20 20 0 0 1 20-20z" fill="#fff" fill-rule="evenodd" data-name="사각형 123"/><g data-name="그룹 68"><g data-name="그룹 67" transform="translate(27.549 256)" clip-path="url(&quot;#a&quot;)"><path d="M30.349 31.355H4.876A4.876 4.876 0 0 1 0 26.479V11.704C0 5.24 5.24 0 11.704 0h11.817c6.464 0 11.704 5.24 11.704 11.704v14.775a4.876 4.876 0 0 1-4.876 4.876" fill="#f2cea5" fill-rule="evenodd" data-name="패스 66"/><path d="M2.581 9.086h29.677v13.161H2.581V9.087z" fill="#fff" fill-rule="evenodd" data-name="사각형 92"/><path d="M11.355 26.763a2.452 2.452 0 1 1-4.905 0 2.452 2.452 0 0 1 4.905 0" fill="#fff" fill-rule="evenodd" data-name="패스 67"/><path d="M28.964 26.763a2.452 2.452 0 1 1-4.905 0 2.452 2.452 0 0 1 4.905 0" fill="#fff" fill-rule="evenodd" data-name="패스 68"/><path d="M6.452 30.355 1.29 38.409h5.16l4.96-8.054" fill="#edcba3" fill-rule="evenodd" data-name="패스 69"/><path d="M6.452 30.355 1.29 38.409h5.16l4.96-8.054" stroke-linejoin="round" stroke-linecap="round" stroke="#edcba3" fill="transparent" data-name="패스 70"/><path d="m28.863 30.355 5.16 8.054h-5.16l-4.96-8.054" fill="#edcba3" fill-rule="evenodd" data-name="패스 71"/><path d="m28.863 30.355 5.16 8.054h-5.16l-4.96-8.054" stroke-linejoin="round" stroke-linecap="round" stroke="#edcba3" fill="transparent" data-name="패스 72"/></g></g></g><defs><clipPath id="a"><path d="M0 0h35.226v38.908H0V0z" data-name="사각형 93"/></clipPath></defs></svg>