<svg xmlns="http://www.w3.org/2000/svg" width="53" height="53" viewBox="212 249 53 53"><g data-name="그룹 107"><path d="M232 249h13a20 20 0 0 1 20 20v13a20 20 0 0 1-20 20h-13a20 20 0 0 1-20-20v-13a20 20 0 0 1 20-20z" fill="#fff" fill-rule="evenodd" data-name="사각형 128"/><g data-name="그룹 70"><g data-name="그룹 69" transform="translate(228.776 256.046)" clip-path="url(&quot;#a&quot;)"><path d="M16.505 37.316H2.943A2.943 2.943 0 0 1 0 34.373V11.279a2.943 2.943 0 0 1 2.943-2.943h13.562a2.943 2.943 0 0 1 2.943 2.943v23.094a2.943 2.943 0 0 1-2.943 2.943" fill="#edcba3" fill-rule="evenodd" data-name="패스 73"/><path d="M4.19 8.828V1.833s0-1.23 1.92-1.23h7.533s.73-.087 1.202.327c.192.17.413.304.413.75v6.84" stroke-linejoin="round" stroke-linecap="round" stroke="#edcba3" fill="transparent" data-name="패스 74"/><path d="M4.718 37.941c0 .534-.245.967-.548.967-.303 0-.547-.433-.547-.967 0-.533.244-.966.547-.966.303 0 .548.433.548.966" fill="#edcba3" fill-rule="evenodd" data-name="패스 75"/><path d="M16.354 37.941c0 .534-.246.967-.548.967-.303 0-.547-.433-.547-.967 0-.533.244-.966.547-.966.302 0 .548.433.548.966" fill="#edcba3" fill-rule="evenodd" data-name="패스 76"/></g></g></g><defs><clipPath id="a"><path d="M0 0h19.448v38.908H0V0z" data-name="사각형 94"/></clipPath></defs></svg>